<svg class="bob" font-family="arial" font-size="14" height="304" width="728" xmlns="http://www.w3.org/2000/svg">
<defs>
<marker id="triangle" markerHeight="8" markerWidth="8" orient="auto" refX="4" refY="2" viewBox="0 0 8 4">
<polygon fill="black" points="0,0 0,4 8,2 0,0"/>
</marker>
<marker id="clear_triangle" markerHeight="10" markerWidth="10" orient="auto" refX="1" refY="7" viewBox="0 0 20 14">
<polygon fill="none" points="2,2 2,12 18,7 2,2" stroke="black" stroke-width="2"/>
</marker>
<marker id="circle" markerHeight="5" markerWidth="5" orient="auto" refX="10" refY="10" viewBox="0 0 20 20">
<circle cx="10" cy="10" fill="black" r="8"/>
</marker>
<marker id="square" markerHeight="5" markerWidth="5" orient="auto" refX="10" refY="10" viewBox="0 0 20 20">
<rect fill="black" height="20" width="20" x="0" y="0"/>
</marker>
<marker id="open_circle" markerHeight="10" markerWidth="10" orient="auto" refX="10" refY="10" viewBox="0 0 20 20">
<circle cx="10" cy="10" fill="white" r="4" stroke="black" stroke-width="2"/>
</marker>
<marker id="big_open_circle" markerHeight="20" markerWidth="20" orient="auto" refX="20" refY="20" viewBox="0 0 40 40">
<circle cx="20" cy="20" fill="white" r="6" stroke="black" stroke-width="2"/>
</marker>
</defs>
<style type="text/css">

    line,path {
      stroke: black;
      stroke-width: 2;
      stroke-opacity: 1;
      fill-opacity: 1;
      stroke-linecap: round;
      stroke-linejoin: miter;
    }
    line.dashed {
        stroke-dasharray: 5;
    }
    circle.solid {
      fill:black;
      stroke: black;
      stroke-width: 2;
      stroke-opacity: 1;
      fill-opacity: 1;
      stroke-linecap: round;
      stroke-linejoin: miter;
    }
    circle.open {
      fill:none;
      stroke: black;
      stroke-width: 2;
      stroke-opacity: 1;
      fill-opacity: 1;
      stroke-linecap: round;
      stroke-linejoin: miter;
    }
    tspan.head{
        fill: none;
        stroke: none;
    }
    
</style>
<rect fill="white" height="304" width="728" x="0" y="0"/>
<g>
<line x1="4" x2="4" y1="8" y2="40"/>
<line x1="4" x2="108" y1="8" y2="8"/>
<line x1="4" x2="108" y1="40" y2="40"/>
<line x1="108" x2="108" y1="8" y2="40"/>
</g>
<g>
<line marker-end="url(#triangle)" x1="108" x2="156" y1="24" y2="24"/>
</g>
<g>
<line x1="164" x2="164" y1="8" y2="40"/>
<line x1="164" x2="276" y1="8" y2="8"/>
<line x1="164" x2="276" y1="40" y2="40"/>
<line x1="276" x2="276" y1="8" y2="40"/>
</g>
<g>
<line x1="276" x2="300" y1="24" y2="24"/>
<line x1="300" x2="300" y1="24" y2="152"/>
<line marker-end="url(#triangle)" x1="300" x2="324" y1="24" y2="24"/>
<line x1="300" x2="300" y1="152" y2="280"/>
<line marker-end="url(#triangle)" x1="300" x2="324" y1="152" y2="152"/>
<line marker-end="url(#triangle)" x1="300" x2="324" y1="280" y2="280"/>
</g>
<g>
<line x1="332" x2="332" y1="8" y2="40"/>
<line x1="332" x2="460" y1="8" y2="8"/>
<line x1="332" x2="460" y1="40" y2="40"/>
<line x1="460" x2="460" y1="8" y2="40"/>
</g>
<g>
<line x1="332" x2="332" y1="136" y2="168"/>
<line x1="332" x2="404" y1="136" y2="136"/>
<line x1="332" x2="404" y1="168" y2="168"/>
<line x1="404" x2="404" y1="136" y2="168"/>
</g>
<g>
<line x1="332" x2="332" y1="264" y2="296"/>
<line x1="332" x2="412" y1="264" y2="264"/>
<line x1="332" x2="412" y1="296" y2="296"/>
<line x1="412" x2="412" y1="264" y2="296"/>
</g>
<g>
<line marker-end="url(#triangle)" x1="404" x2="452" y1="152" y2="152"/>
</g>
<g>
<line marker-end="url(#triangle)" x1="412" x2="460" y1="280" y2="280"/>
</g>
<g>
<line x1="460" x2="484" y1="24" y2="24"/>
<line x1="484" x2="484" y1="24" y2="88"/>
<line marker-end="url(#triangle)" x1="484" x2="508" y1="24" y2="24"/>
<line marker-end="url(#triangle)" x1="484" x2="508" y1="88" y2="88"/>
</g>
<g>
<line x1="460" x2="460" y1="136" y2="168"/>
<line x1="460" x2="572" y1="136" y2="136"/>
<line x1="460" x2="572" y1="168" y2="168"/>
<line x1="572" x2="572" y1="136" y2="168"/>
</g>
<g>
<line x1="468" x2="468" y1="264" y2="296"/>
<line x1="468" x2="580" y1="264" y2="264"/>
<line x1="468" x2="580" y1="296" y2="296"/>
<line x1="580" x2="580" y1="264" y2="296"/>
</g>
<g>
<line x1="516" x2="516" y1="8" y2="40"/>
<line x1="516" x2="620" y1="8" y2="8"/>
<line x1="516" x2="620" y1="40" y2="40"/>
<line x1="620" x2="620" y1="8" y2="40"/>
</g>
<g>
<line x1="516" x2="516" y1="72" y2="104"/>
<line x1="516" x2="620" y1="72" y2="72"/>
<line x1="516" x2="620" y1="104" y2="104"/>
<line x1="620" x2="620" y1="72" y2="104"/>
</g>
<g>
<line x1="572" x2="596" y1="152" y2="152"/>
<line x1="596" x2="596" y1="152" y2="216"/>
<line marker-end="url(#triangle)" x1="596" x2="620" y1="152" y2="152"/>
<line marker-end="url(#triangle)" x1="596" x2="620" y1="216" y2="216"/>
</g>
<g>
<line x1="628" x2="628" y1="136" y2="168"/>
<line x1="628" x2="724" y1="136" y2="136"/>
<line x1="628" x2="724" y1="168" y2="168"/>
<line x1="724" x2="724" y1="136" y2="168"/>
</g>
<g>
<line x1="628" x2="628" y1="200" y2="232"/>
<line x1="628" x2="724" y1="200" y2="200"/>
<line x1="628" x2="724" y1="232" y2="232"/>
<line x1="724" x2="724" y1="200" y2="232"/>
</g>
<g>
<text x="17" y="28">
wl_display
</text>
</g>
<g>
<text x="177" y="28">
wl_registry
</text>
</g>
<g>
<text x="345" y="28">
wl_compositor
</text>
</g>
<g>
<text x="345" y="156">
wl_shm
</text>
</g>
<g>
<text x="345" y="284">
wl_seat
</text>
</g>
<g>
<text x="473" y="156">
wl_shm_pool
</text>
</g>
<g>
<text x="481" y="284">
wl_keyboard
</text>
</g>
<g>
<text x="529" y="28">
wl_surface
</text>
</g>
<g>
<text x="529" y="92">
wl_surface
</text>
</g>
<g>
<text x="641" y="156">
wl_buffer
</text>
</g>
<g>
<text x="641" y="220">
wl_buffer
</text>
</g>
</svg>